<svg width="120" height="120" viewBox="0 0 120 120" xmlns="http://www.w3.org/2000/svg">
  <defs>
    <linearGradient id="bgGradient" x1="0%" y1="0%" x2="100%" y2="100%">
      <stop offset="0%" stop-color="#312E81"/>
      <stop offset="100%" stop-color="#7C3AED"/>
    </linearGradient>
    <linearGradient id="boxGradient" x1="0%" y1="0%" x2="100%" y2="0%">
      <stop offset="0%" stop-color="#EC4899"/>
      <stop offset="100%" stop-color="#F97316"/>
    </linearGradient>
  </defs>

  <!-- Abgerundeter Hintergrund -->
  <rect x="6" y="6" width="108" height="108" rx="26" fill="url(#bgGradient)"/>

  <!-- Geschenkbox-Gruppe -->
  <g transform="translate(20,22)">
    <!-- Boxkörper -->
    <rect x="16" y="32" width="48" height="40" rx="8" fill="url(#boxGradient)"/>

    <!-- Vertikales Band -->
    <rect x="38" y="32" width="4" height="40" fill="#F9FAFB" opacity="0.9"/>

    <!-- Deckel -->
    <rect x="16" y="28" width="48" height="8" rx="3" fill="#F9FAFB" opacity="0.95"/>

    <!-- Schleife links -->
    <path d="M40 28 C30 18, 26 10, 30 8 C34 6, 38 10, 40 16 Z"
          fill="#22D3EE"/>
    <!-- Schleife rechts -->
    <path d="M40 28 C50 18, 54 10, 50 8 C46 6, 42 10, 40 16 Z"
          fill="#FACC15"/>

    <!-- Funken / AI-Knoten -->
    <circle cx="12" cy="16" r="3" fill="#22D3EE"/>
    <circle cx="68" cy="14" r="3" fill="#FACC15"/>
    <circle cx="76" cy="40" r="2.6" fill="#A5B4FC"/>
    <circle cx="8"  cy="44" r="2.6" fill="#ECFEFF"/>

    <!-- Verbindungslinien -->
    <line x1="40" y1="20" x2="12" y2="16" stroke="#E0F2FE" stroke-width="1.6" stroke-linecap="round"/>
    <line x1="40" y1="20" x2="68" y2="14" stroke="#E0F2FE" stroke-width="1.6" stroke-linecap="round"/>
    <line x1="40" y1="36" x2="76" y2="40" stroke="#E0F2FE" stroke-width="1.6" stroke-linecap="round"/>
    <line x1="24" y1="40" x2="8"  y2="44" stroke="#E0F2FE" stroke-width="1.6" stroke-linecap="round"/>
  </g>
</svg>
